<svg width="1000" height="800" viewBox="0 0 1000 800" xmlns="http://www.w3.org/2000/svg">
<rect x="0" y="0" width="1000" height="800" fill="white" stroke="none"/>
<text x="500" y="25" text-anchor="middle" font-family="Arial" font-size="16" fill="black">PLOOP Profile: /1KA-ARCH-P-R-K710_Panel_1 (高度: 4500.0mm)</text>
<path d="M 60.00 740.00 L 60.00 60.00 L 320.01 60.00 L 320.01 740.00 L 60.00 740.00 Z" fill="none" stroke="blue" stroke-width="2"/>
<circle cx="60" cy="740" r="3" fill="red" stroke="white" stroke-width="1"/>
<text x="68" y="732" font-family="Arial" font-size="10" font-weight="bold" fill="black">0</text>
<circle cx="60" cy="60" r="3" fill="red" stroke="white" stroke-width="1"/>
<text x="68" y="52" font-family="Arial" font-size="10" font-weight="bold" fill="black">1</text>
<circle cx="320" cy="60" r="3" fill="red" stroke="white" stroke-width="1"/>
<text x="328" y="52" font-family="Arial" font-size="10" font-weight="bold" fill="black">2</text>
<circle cx="320" cy="740" r="3" fill="red" stroke="white" stroke-width="1"/>
<text x="328" y="732" font-family="Arial" font-size="10" font-weight="bold" fill="black">3</text>
<line x1="60" y1="740" x2="60" y2="60" stroke="lightgray" stroke-width="1" opacity="0.3"/>
<line x1="110" y1="740" x2="110" y2="60" stroke="lightgray" stroke-width="1" opacity="0.3"/>
<line x1="160" y1="740" x2="160" y2="60" stroke="lightgray" stroke-width="1" opacity="0.3"/>
<line x1="210" y1="740" x2="210" y2="60" stroke="lightgray" stroke-width="1" opacity="0.3"/>
<line x1="260" y1="740" x2="260" y2="60" stroke="lightgray" stroke-width="1" opacity="0.3"/>
<line x1="310" y1="740" x2="310" y2="60" stroke="lightgray" stroke-width="1" opacity="0.3"/>
<line x1="360" y1="740" x2="360" y2="60" stroke="lightgray" stroke-width="1" opacity="0.3"/>
<line x1="410" y1="740" x2="410" y2="60" stroke="lightgray" stroke-width="1" opacity="0.3"/>
<line x1="460" y1="740" x2="460" y2="60" stroke="lightgray" stroke-width="1" opacity="0.3"/>
<line x1="510" y1="740" x2="510" y2="60" stroke="lightgray" stroke-width="1" opacity="0.3"/>
<line x1="560" y1="740" x2="560" y2="60" stroke="lightgray" stroke-width="1" opacity="0.3"/>
<line x1="610" y1="740" x2="610" y2="60" stroke="lightgray" stroke-width="1" opacity="0.3"/>
<line x1="660" y1="740" x2="660" y2="60" stroke="lightgray" stroke-width="1" opacity="0.3"/>
<line x1="710" y1="740" x2="710" y2="60" stroke="lightgray" stroke-width="1" opacity="0.3"/>
<line x1="760" y1="740" x2="760" y2="60" stroke="lightgray" stroke-width="1" opacity="0.3"/>
<line x1="810" y1="740" x2="810" y2="60" stroke="lightgray" stroke-width="1" opacity="0.3"/>
<line x1="860" y1="740" x2="860" y2="60" stroke="lightgray" stroke-width="1" opacity="0.3"/>
<line x1="910" y1="740" x2="910" y2="60" stroke="lightgray" stroke-width="1" opacity="0.3"/>
<line x1="60" y1="60" x2="940" y2="60" stroke="lightgray" stroke-width="1" opacity="0.3"/>
<line x1="60" y1="110" x2="940" y2="110" stroke="lightgray" stroke-width="1" opacity="0.3"/>
<line x1="60" y1="160" x2="940" y2="160" stroke="lightgray" stroke-width="1" opacity="0.3"/>
<line x1="60" y1="210" x2="940" y2="210" stroke="lightgray" stroke-width="1" opacity="0.3"/>
<line x1="60" y1="260" x2="940" y2="260" stroke="lightgray" stroke-width="1" opacity="0.3"/>
<line x1="60" y1="310" x2="940" y2="310" stroke="lightgray" stroke-width="1" opacity="0.3"/>
<line x1="60" y1="360" x2="940" y2="360" stroke="lightgray" stroke-width="1" opacity="0.3"/>
<line x1="60" y1="410" x2="940" y2="410" stroke="lightgray" stroke-width="1" opacity="0.3"/>
<line x1="60" y1="460" x2="940" y2="460" stroke="lightgray" stroke-width="1" opacity="0.3"/>
<line x1="60" y1="510" x2="940" y2="510" stroke="lightgray" stroke-width="1" opacity="0.3"/>
<line x1="60" y1="560" x2="940" y2="560" stroke="lightgray" stroke-width="1" opacity="0.3"/>
<line x1="60" y1="610" x2="940" y2="610" stroke="lightgray" stroke-width="1" opacity="0.3"/>
<line x1="60" y1="660" x2="940" y2="660" stroke="lightgray" stroke-width="1" opacity="0.3"/>
<line x1="60" y1="710" x2="940" y2="710" stroke="lightgray" stroke-width="1" opacity="0.3"/>
<rect x="630" y="702" width="360" height="88" fill="white" stroke="gray" stroke-width="1" opacity="0.95" rx="5"/>
<text x="810" y="717" text-anchor="middle" font-family="Arial" font-size="12" font-weight="bold" fill="black">顶点坐标表</text>
<text x="640" y="732" font-family="Arial" font-size="10" font-weight="bold" fill="gray">序号</text>
<text x="680" y="732" font-family="Arial" font-size="10" font-weight="bold" fill="gray">X (mm)</text>
<text x="760" y="732" font-family="Arial" font-size="10" font-weight="bold" fill="gray">Y (mm)</text>
<text x="840" y="732" font-family="Arial" font-size="10" font-weight="bold" fill="orange">FRADIUS</text>
<line x1="635" y1="735" x2="985" y2="735" stroke="lightgray" stroke-width="1"/>
<text x="645" y="747" text-anchor="middle" font-family="Arial" font-size="9" fill="black">0</text>
<text x="685" y="747" font-family="Arial" font-size="9" fill="black">0.00</text>
<text x="765" y="747" font-family="Arial" font-size="9" fill="black">0.00</text>
<text x="845" y="747" font-family="Arial" font-size="9" fill="gray">-</text>
<text x="645" y="759" text-anchor="middle" font-family="Arial" font-size="9" fill="black">1</text>
<text x="685" y="759" font-family="Arial" font-size="9" fill="black">0.00</text>
<text x="765" y="759" font-family="Arial" font-size="9" fill="black">6800.00</text>
<text x="845" y="759" font-family="Arial" font-size="9" fill="gray">-</text>
<text x="645" y="771" text-anchor="middle" font-family="Arial" font-size="9" fill="black">2</text>
<text x="685" y="771" font-family="Arial" font-size="9" fill="black">2600.11</text>
<text x="765" y="771" font-family="Arial" font-size="9" fill="black">6800.00</text>
<text x="845" y="771" font-family="Arial" font-size="9" fill="gray">-</text>
<text x="645" y="783" text-anchor="middle" font-family="Arial" font-size="9" fill="black">3</text>
<text x="685" y="783" font-family="Arial" font-size="9" fill="black">2600.11</text>
<text x="765" y="783" font-family="Arial" font-size="9" fill="black">0.00</text>
<text x="845" y="783" font-family="Arial" font-size="9" fill="gray">-</text>
</svg>
